<?xml version="1.0" encoding="UTF-8"?>
<!-- SPDX-License-Identifier: GPL-3.0-or-later -->
<svg xmlns="http://www.w3.org/2000/svg" width="256" height="256" viewBox="0 0 256 256" role="img" aria-label="Pika Fetch">
  <defs>
    <linearGradient id="tile" x1="38" y1="26" x2="218" y2="232" gradientUnits="userSpaceOnUse">
      <stop offset="0" stop-color="#17211d"/>
      <stop offset="0.48" stop-color="#0f1513"/>
      <stop offset="1" stop-color="#243329"/>
    </linearGradient>
    <linearGradient id="terminal" x1="64" y1="96" x2="204" y2="202" gradientUnits="userSpaceOnUse">
      <stop offset="0" stop-color="#27362f"/>
      <stop offset="1" stop-color="#0a0f0d"/>
    </linearGradient>
    <linearGradient id="bird" x1="74" y1="42" x2="166" y2="165" gradientUnits="userSpaceOnUse">
      <stop offset="0" stop-color="#d7ffe0"/>
      <stop offset="0.28" stop-color="#9be6a8"/>
      <stop offset="0.7" stop-color="#58bf72"/>
      <stop offset="1" stop-color="#2e8f56"/>
    </linearGradient>
    <linearGradient id="wing" x1="102" y1="91" x2="153" y2="151" gradientUnits="userSpaceOnUse">
      <stop offset="0" stop-color="#f4fff6"/>
      <stop offset="1" stop-color="#75d28b"/>
    </linearGradient>
    <radialGradient id="glow" cx="50%" cy="33%" r="64%">
      <stop offset="0" stop-color="#9be6a8" stop-opacity="0.42"/>
      <stop offset="1" stop-color="#9be6a8" stop-opacity="0"/>
    </radialGradient>
    <filter id="shadow" x="-18%" y="-18%" width="136%" height="150%" color-interpolation-filters="sRGB">
      <feDropShadow dx="0" dy="12" stdDeviation="12" flood-color="#000000" flood-opacity="0.38"/>
    </filter>
    <filter id="softShadow" x="-20%" y="-20%" width="140%" height="150%" color-interpolation-filters="sRGB">
      <feDropShadow dx="0" dy="7" stdDeviation="6" flood-color="#000000" flood-opacity="0.28"/>
    </filter>
  </defs>

  <rect x="16" y="16" width="224" height="224" rx="52" fill="url(#tile)"/>
  <rect x="16" y="16" width="224" height="224" rx="52" fill="url(#glow)"/>
  <path d="M42 192c34 22 78 30 118 18 24-7 45-21 60-40v21c0 17-14 31-31 31H67c-17 0-31-14-31-31v-4c2 2 4 3 6 5Z" fill="#79d08a" opacity="0.1"/>

  <g filter="url(#shadow)">
    <rect x="49" y="95" width="162" height="112" rx="24" fill="url(#terminal)" stroke="#8ee89f" stroke-width="5"/>
    <rect x="66" y="116" width="128" height="69" rx="15" fill="#08100c"/>
    <g fill="#7fe293">
      <path d="M82 142l13-10 4 5-8 6 8 6-4 5-13-10Z"/>
      <rect x="111" y="137" width="49" height="8" rx="4"/>
      <rect x="111" y="154" width="68" height="8" rx="4" opacity="0.72"/>
      <rect x="111" y="171" width="38" height="8" rx="4" opacity="0.52"/>
    </g>
    <g fill="#f7f5ef" opacity="0.82">
      <circle cx="81" cy="110" r="4"/>
      <circle cx="96" cy="110" r="4"/>
      <circle cx="111" cy="110" r="4"/>
    </g>
  </g>

  <g filter="url(#softShadow)">
    <path d="M128 42c-29 0-54 19-61 47-8 32 13 64 45 70 26 5 52-9 64-32 4-8 14-11 22-7l15 8-11-22 17-16-28-2c-9-26-33-46-61-46Z" fill="url(#bird)"/>
    <path d="M78 83c9-18 26-31 46-34-6-7-15-14-28-18 2 12 0 22-18 52Z" fill="#a8f2b4"/>
    <path d="M130 49c20 2 36 15 45 32 7-17 15-27 29-35-23-3-40 1-74 3Z" fill="#7fdc8f"/>
    <path d="M103 96c15-1 31 6 44 20-13 14-34 20-54 13 1-13 4-22 10-33Z" fill="url(#wing)" opacity="0.95"/>
    <path d="M99 122c15 1 29-3 42-13 2 4 4 8 6 12-14 13-33 18-54 11 1-4 3-7 6-10Z" fill="#2f8f56" opacity="0.42"/>
    <circle cx="149" cy="77" r="8" fill="#0a0f0d"/>
    <circle cx="152" cy="74" r="3" fill="#f7f5ef"/>
    <path d="M171 87l39-5-29 20c-8 6-18 1-18-8 0-4 3-7 8-7Z" fill="#f1c84b"/>
    <path d="M170 95l29-4-21 12c-8 5-15 1-15-6 0-1 2-2 7-2Z" fill="#db9f2f"/>
  </g>

  <g opacity="0.9">
    <path d="M79 198h98" stroke="#8ee89f" stroke-width="10" stroke-linecap="round"/>
    <path d="M104 184h48" stroke="#8ee89f" stroke-width="16" stroke-linecap="round"/>
  </g>
</svg>
